<?xml version="1.0" encoding="UTF-8" standalone="no"?>
<!-- Roman Inozemtsev: https://github.com/mir-one/  -->

<svg
   xmlns:dc="http://purl.org/dc/elements/1.1/"
   xmlns:cc="http://creativecommons.org/ns#"
   xmlns:rdf="http://www.w3.org/1999/02/22-rdf-syntax-ns#"
   xmlns:svg="http://www.w3.org/2000/svg"
   xmlns="http://www.w3.org/2000/svg"
   xmlns:sodipodi="http://sodipodi.sourceforge.net/DTD/sodipodi-0.dtd"
   xmlns:inkscape="http://www.inkscape.org/namespaces/inkscape"
   version="1.1"
   id="Слой_1"
   x="0px"
   y="0px"
   viewBox="0 0 64.000001 64"
   xml:space="preserve"
   sodipodi:docname="wB-bg-COS.svg"
   inkscape:version="0.92.3 (2405546, 2018-03-11)"
   width="64"
   height="64"><metadata
   id="metadata19"><rdf:RDF><cc:Work
       rdf:about=""><dc:format>image/svg+xml</dc:format><dc:type
         rdf:resource="http://purl.org/dc/dcmitype/StillImage" /></cc:Work></rdf:RDF></metadata><defs
   id="defs17">
	
	
	
	
	
	
	
	
	
	
	
	
	
	
	
	
</defs><sodipodi:namedview
   pagecolor="#ffffff"
   bordercolor="#666666"
   borderopacity="1"
   objecttolerance="10"
   gridtolerance="10"
   guidetolerance="10"
   inkscape:pageopacity="0"
   inkscape:pageshadow="2"
   inkscape:window-width="1366"
   inkscape:window-height="691"
   id="namedview15"
   showgrid="false"
   inkscape:zoom="7.0447762"
   inkscape:cx="39.562398"
   inkscape:cy="31.181802"
   inkscape:window-x="0"
   inkscape:window-y="0"
   inkscape:window-maximized="1"
   inkscape:current-layer="Слой_1" />
<style
   type="text/css"
   id="style2">
	.st0{fill:#F79420;}
	.st1{fill:#D57E28;}
	.st2{fill:#FFFFFF;}
</style>

<g
   id="g4768"
   style="stroke-width:0.99844116"
   transform="scale(1.003125,1)">
		<circle
   id="circle4766"
   r="32"
   cy="32"
   cx="32"
   class="st0"
   style="fill:#4f5d73;stroke-width:0.99844116" />
	</g><g
   id="g4772"
   class="st1"
   style="opacity:0.2;fill:#d57e28;stroke-width:1.29999936"
   transform="matrix(0.77043212,0,0,0.76803202,7.4877248,7.080304)">
		<path
   id="path4770"
   d="M 32.1,39.7 C 30.5,41.2 26,52.2 26,52.2 c -0.7,1.2 0.3,2.1 2.6,0.9 l 8.1,-4.4 c 4.4,-2.4 5.2,-3.1 5.2,-8 l -0.8,-5.9 c -0.3,-2 -1.8,-2.4 -3.3,-0.8 z"
   class="st2"
   inkscape:connector-curvature="0"
   style="fill:#231f20;stroke-width:1.29999936" />
	</g><g
   id="g4776"
   class="st1"
   style="opacity:0.2;fill:#d57e28;stroke-width:1.29999936"
   transform="matrix(0.77043212,0,0,0.76803202,7.4877248,7.080304)">
		<path
   id="path4774"
   d="m 27.1,34.7 c -1.6,1.6 -12.5,6.1 -12.5,6.1 -1.2,0.7 -2.1,-0.3 -0.9,-2.6 L 18,30 c 2.4,-4.4 3.1,-5.2 8,-5.2 l 5.9,0.8 c 2,0.3 2.4,1.8 0.8,3.3 z"
   class="st2"
   inkscape:connector-curvature="0"
   style="fill:#231f20;stroke-width:1.29999936" />
	</g><g
   id="g4780"
   style="stroke-width:1.29999936;fill:#ff8080"
   transform="matrix(0.77043212,0,0,0.76803202,7.4877248,7.080304)">
		<path
   id="path4778-3"
   d="M 32.1,37.7 C 30.5,39.2 26,50.2 26,50.2 c -0.7,1.2 0.3,2.1 2.6,0.9 l 8.1,-4.4 c 4.4,-2.4 5.2,-3.1 5.2,-8 l -0.8,-5.9 c -0.3,-2 -1.8,-2.4 -3.3,-0.8 z"
   class="st3"
   inkscape:connector-curvature="0"
   style="fill:#ff8080;stroke-width:1.29999936" />
	</g><g
   id="g4784"
   style="stroke-width:1.29999936;fill:#ff8080"
   transform="matrix(0.77043212,0,0,0.76803202,7.4877248,7.080304)">
		<path
   id="path4782"
   d="m 27.1,32.7 c -1.6,1.6 -12.5,6.1 -12.5,6.1 -1.2,0.7 -2.1,-0.3 -0.9,-2.6 L 18,28 c 2.4,-4.4 3.1,-5.2 8,-5.2 l 5.9,0.8 c 2,0.3 2.4,1.8 0.8,3.3 z"
   class="st3"
   inkscape:connector-curvature="0"
   style="fill:#ff8080;stroke-width:1.29999936" />
	</g><g
   id="g4788"
   class="st1"
   style="opacity:0.2;fill:#d57e28;stroke-width:1.29999936"
   transform="matrix(0.77043212,0,0,0.76803202,7.4877248,7.080304)">
		<path
   id="path4786"
   d="m 21.2,39.5 c 5.1,-5.1 9.3,-3.5 9.3,-3.5 0,0 1.5,4.3 -3.5,9.3 -5,5 -13.3,8.8 -13.9,8.1 -0.6,-0.5 3.1,-8.8 8.1,-13.9 z"
   class="st2"
   inkscape:connector-curvature="0"
   style="fill:#231f20;stroke-width:1.29999936" />
	</g><g
   id="g4792"
   style="stroke-width:1.29999936"
   transform="matrix(0.77043212,0,0,0.76803202,7.4877248,7.080304)">
		<path
   id="path4790"
   d="m 21.2,37.5 c 5.1,-5.1 9.3,-3.5 9.3,-3.5 0,0 1.5,4.3 -3.5,9.3 -5,5 -13.3,8.8 -13.9,8.1 -0.6,-0.5 3.1,-8.8 8.1,-13.9 z"
   class="st4"
   inkscape:connector-curvature="0"
   style="fill:#e0995e;stroke-width:1.29999936" />
	</g><g
   id="g4796"
   style="stroke-width:1.29999936"
   transform="matrix(0.77043212,0,0,0.76803202,7.4877248,7.080304)">
		<path
   id="path4794"
   d="m 25.5,33.3 c 5.1,-5.1 9.3,-3.5 9.3,-3.5 0,0 1.5,4.3 -3.5,9.3 -5,5 -13.3,8.8 -13.9,8.1 -0.7,-0.6 3,-8.8 8.1,-13.9 z"
   class="st5"
   inkscape:connector-curvature="0"
   style="fill:#f5cf87;stroke-width:1.29999936" />
	</g><g
   id="g4800"
   class="st1"
   style="opacity:0.2;fill:#d57e28;stroke-width:1.29999936"
   transform="matrix(0.77043212,0,0,0.76803202,7.4877248,7.080304)">
		<path
   id="path4798"
   d="m 43.6,37.1 c -7.8,7.8 -19.8,5.7 -19.8,5.7 0,0 -2.1,-12 5.7,-19.8 7.8,-7.8 19.6,-8.6 21.2,-7.1 1.5,1.5 0.7,13.4 -7.1,21.2 z"
   class="st2"
   inkscape:connector-curvature="0"
   style="fill:#231f20;stroke-width:1.29999936" />
	</g><g
   id="g4804"
   style="stroke-width:1.29999936"
   transform="matrix(0.77043212,0,0,0.76803202,7.4877248,7.080304)">
		<path
   id="path4802"
   d="m 43.6,35.1 c -7.8,7.8 -19.8,5.7 -19.8,5.7 0,0 -2.1,-12 5.7,-19.8 7.8,-7.8 19.6,-8.6 21.2,-7.1 1.5,1.5 0.7,13.4 -7.1,21.2 z"
   class="st6"
   inkscape:connector-curvature="0"
   style="fill:#e0e0d1;stroke-width:1.29999936" />
	</g><g
   id="g4808"
   class="st1"
   style="opacity:0.2;fill:#d57e28;stroke-width:1.29999936"
   transform="matrix(0.77043212,0,0,0.76803202,7.4877248,7.080304)">
		<path
   id="path4806"
   d="m 21,47 c -0.8,0.8 -1.3,1.5 -2.1,0.7 v 0 c -0.8,-0.8 -0.1,-1.3 0.7,-2.1 l 9.9,-12.7 c 0.8,-0.8 4.2,-1.5 4.9,-0.7 v 0 c 0.8,0.8 0.1,4.2 -0.7,4.9 z"
   class="st2"
   inkscape:connector-curvature="0"
   style="fill:#231f20;stroke-width:1.29999936" />
	</g><g
   id="g4812"
   style="stroke-width:1.29999936;fill:#ff8080"
   transform="matrix(0.77043212,0,0,0.76803202,7.4877248,7.080304)">
		<path
   id="path4810"
   d="m 21,45 c -0.8,0.8 -1.3,1.5 -2.1,0.7 v 0 c -0.8,-0.8 -0.1,-1.3 0.7,-2.1 l 9.9,-12.7 c 0.8,-0.8 4.2,-1.5 4.9,-0.7 v 0 c 0.8,0.8 0.1,4.2 -0.7,4.9 z"
   class="st3"
   inkscape:connector-curvature="0"
   style="fill:#ff8080;stroke-width:1.29999936" />
	</g><g
   id="g4816"
   class="st1"
   style="opacity:0.2;fill:#d57e28;stroke-width:1.29999936"
   transform="matrix(0.77043212,0,0,0.76803202,7.4877248,7.080304)">
		<circle
   id="circle4814"
   r="4"
   cy="27.1"
   cx="39.599998"
   class="st2"
   style="fill:#231f20;stroke-width:1.29999936" />
	</g><g
   id="g4820"
   class="st1"
   style="opacity:0.2;fill:#d57e28;stroke-width:1.29999936"
   transform="matrix(0.77043212,0,0,0.76803202,7.4877248,7.080304)">
		<circle
   id="circle4818"
   r="2"
   cy="21.5"
   cx="45.299999"
   class="st2"
   style="fill:#231f20;stroke-width:1.29999936" />
	</g><g
   id="g4824"
   style="stroke-width:1.29999936;fill:#b014ff;fill-opacity:1"
   transform="matrix(0.77043212,0,0,0.76803202,7.4877248,7.080304)">
		<circle
   id="circle4822"
   r="4"
   cy="25.1"
   cx="39.599998"
   class="st0"
   style="fill:#b014ff;stroke-width:1.29999936;fill-opacity:1" />
	</g><g
   id="g4828"
   style="stroke-width:1.29999936;fill:#b014ff;fill-opacity:1"
   transform="matrix(0.77043212,0,0,0.76803202,7.4877248,7.080304)">
		<circle
   id="circle4826"
   r="2"
   cy="19.5"
   cx="45.299999"
   class="st0"
   style="fill:#b014ff;stroke-width:1.29999936;fill-opacity:1" />
	</g><g
   style="stroke-width:0.99844116"
   id="Layer_2"
   transform="scale(1.003125,1)">
</g><path
   style="fill:#ffffff;stroke-width:1"
   d="m 32.147385,2.0000002 c -16.609885,0 -30.1411359,13.4171588 -30.1411359,30.0009088 0,16.58375 13.4383019,29.99909 30.0481959,29.99909 4.0125,0 7.837998,-0.838867 11.290614,-2.236375 7.596997,-2.981349 13.609327,-9.036484 16.610607,-16.489855 1.39971,-3.447184 2.238082,-7.266673 2.238082,-11.27286 0,-16.58375 -13.436478,-30.0009088 -30.046363,-30.0009088 z m -0.09298,2.236375 c 15.303475,0 27.806465,12.3919568 27.806465,27.7645338 0,3.354017 -0.652111,6.520972 -1.678568,9.50232 -2.813696,7.639705 -8.919828,13.694842 -16.610608,16.489856 -2.986052,1.118005 -6.157983,1.677736 -9.517289,1.677736 -15.303505,0 -27.8082981,-12.390502 -27.8082981,-27.669912 0,-15.27941 12.5047931,-27.7645338 27.8082981,-27.7645338 z"
   id="path4"
   inkscape:connector-curvature="0" /><style
   id="style4764"
   type="text/css">
	.st0{fill:#4F5D73;}
	.st1{opacity:0.2;}
	.st2{fill:#231F20;}
	.st3{fill:#C75C5C;}
	.st4{fill:#E0995E;}
	.st5{fill:#F5CF87;}
	.st6{fill:#E0E0D1;}
</style></svg>