<?xml version="1.0" encoding="UTF-8" standalone="no"?>
<!-- Roman Inozemtsev: https://github.com/mir-one/  -->

<svg
   xmlns:dc="http://purl.org/dc/elements/1.1/"
   xmlns:cc="http://creativecommons.org/ns#"
   xmlns:rdf="http://www.w3.org/1999/02/22-rdf-syntax-ns#"
   xmlns:svg="http://www.w3.org/2000/svg"
   xmlns="http://www.w3.org/2000/svg"
   xmlns:sodipodi="http://sodipodi.sourceforge.net/DTD/sodipodi-0.dtd"
   xmlns:inkscape="http://www.inkscape.org/namespaces/inkscape"
   version="1.1"
   id="Слой_1"
   x="0px"
   y="0px"
   viewBox="0 0 64.000001 64"
   xml:space="preserve"
   sodipodi:docname="wB-bg-PROTON.svg"
   inkscape:version="0.92.3 (2405546, 2018-03-11)"
   width="64"
   height="64"><metadata
   id="metadata19"><rdf:RDF><cc:Work
       rdf:about=""><dc:format>image/svg+xml</dc:format><dc:type
         rdf:resource="http://purl.org/dc/dcmitype/StillImage" /></cc:Work></rdf:RDF></metadata><defs
   id="defs17" /><sodipodi:namedview
   pagecolor="#ffffff"
   bordercolor="#666666"
   borderopacity="1"
   objecttolerance="10"
   gridtolerance="10"
   guidetolerance="10"
   inkscape:pageopacity="0"
   inkscape:pageshadow="2"
   inkscape:window-width="1366"
   inkscape:window-height="691"
   id="namedview15"
   showgrid="false"
   inkscape:zoom="3.5223881"
   inkscape:cx="48.580047"
   inkscape:cy="46.203279"
   inkscape:window-x="0"
   inkscape:window-y="0"
   inkscape:window-maximized="1"
   inkscape:current-layer="Слой_1" />
<style
   type="text/css"
   id="style2">
	.st0{fill:#F79420;}
	.st1{fill:#D57E28;}
	.st2{fill:#FFFFFF;}
</style>

<circle
   style="opacity:1;fill:#d40000;fill-opacity:1;fill-rule:nonzero;stroke:none;stroke-width:3;stroke-linecap:round;stroke-linejoin:bevel;stroke-miterlimit:4;stroke-dasharray:none;stroke-dashoffset:0;stroke-opacity:1;paint-order:stroke markers fill"
   id="path4778"
   cx="32"
   cy="32"
   r="32" /><path
   style="fill:#ffffff;stroke-width:0.99999994"
   d="M 32.04724,2.0000001 C 15.4891,2.0000001 2.0000001,15.417159 2.0000001,32.00091 2.0000001,48.58466 15.39644,62 31.95458,62 c 4,0 7.81359,-0.838868 11.25545,-2.236375 C 50.78335,56.782276 56.77696,50.727141 59.76889,43.27377 61.16424,39.826586 62,36.007097 62,32.00091 62,15.417159 48.60538,2.0000001 32.04724,2.0000001 Z m -0.0927,2.236375 c 15.25581,0 27.71984,12.3919569 27.71984,27.7645349 0,3.354017 -0.65007,6.520972 -1.67333,9.50232 -2.80494,7.639705 -8.89204,13.694842 -16.55887,16.489856 -2.97674,1.118005 -6.1388,1.677736 -9.48764,1.677736 -15.25582,0 -27.7216599,-12.390502 -27.7216599,-27.669912 0,-15.279411 12.4658399,-27.7645349 27.7216599,-27.7645349 z"
   id="path4"
   inkscape:connector-curvature="0" /><g
   id="g4781"
   transform="matrix(0.72691068,0,0,0.72691068,14.262367,9.447318)"
   style="stroke-width:1.37568486"><path
     d="m 25.807959,17.801465 q 3.96,0 6.36,2.76 2.44,2.76 2.44,8.32 0,5.48 -2.44,8.32 -2.4,2.84 -6.4,2.84 -2.48,0 -4.12,-0.92 -1.6,-0.92 -2.52,-2.2 h -0.24 q 0.04,0.68 0.12,1.72 0.12,1.04 0.12,1.8 v 8.8 h -3.52 v -31.04 h 2.88 l 0.48,2.92 h 0.16 q 0.96,-1.4 2.52,-2.36 1.56,-0.96 4.16,-0.96 z m -0.64,2.96 q -3.28,0 -4.64,1.84 -1.36,1.84 -1.4,5.6 v 0.68 q 0,3.96 1.28,6.12 1.32,2.12 4.84,2.12 1.92,0 3.2,-1.04 1.28,-1.08 1.88,-2.96 0.64,-1.88 0.64,-4.28 0,-3.68 -1.44,-5.88 -1.4,-2.2 -4.36,-2.2 z"
     id="path4772"
     inkscape:connector-curvature="0"
     style="font-style:normal;font-weight:normal;font-size:medium;line-height:1.25;font-family:sans-serif;letter-spacing:0px;word-spacing:0px;fill:#ffffff;fill-opacity:1;stroke:none;stroke-width:1.37568486" /><path
     d="m 42.570628,16.236047 h 4.224743 v 1.50732 h -4.224743 v 4.373352 h -1.52855 v -4.373352 h -4.224744 v -1.50732 h 4.224744 v -4.394582 h 1.52855 z"
     id="path4774"
     inkscape:connector-curvature="0"
     style="font-style:normal;font-weight:normal;font-size:medium;line-height:1.25;font-family:sans-serif;letter-spacing:0px;word-spacing:0px;fill:#ffffff;fill-opacity:1;stroke:none;stroke-width:1.37568486" /></g></svg>